<svg width="612" height="80" viewBox="0 0 612 80" fill="none" xmlns="http://www.w3.org/2000/svg">
<path d="M106.586 24.0727C105.689 24.3516 105.417 25.5581 106.108 26.1887C106.553 26.6009 107.369 26.6555 107.96 26.322C108.372 26.0917 108.538 25.7825 108.531 25.2732C108.525 24.5214 108.053 24.0667 107.223 24.0242C106.998 24.0121 106.712 24.0364 106.586 24.0727Z" fill="white"/>
<path d="M149.056 24.0909C148.525 24.2607 148.213 24.7033 148.213 25.2732C148.213 26.1038 148.864 26.613 149.793 26.5282C150.57 26.4554 151.028 26.0007 151.022 25.3035C151.022 24.6608 150.716 24.2546 150.112 24.0909C149.707 23.9818 149.388 23.9818 149.056 24.0909Z" fill="white"/>
<path d="M165.458 24.3759C164.873 25.352 164.216 26.4797 164.216 26.51C164.216 26.5282 164.661 26.5464 165.199 26.5464H166.188L167.111 25.3823C167.616 24.7457 168.074 24.1698 168.12 24.1091C168.207 24.0061 168.153 24 166.945 24H165.683L165.458 24.3759Z" fill="white"/>
<path d="M41.1869 24.2546C41.2268 24.3638 41.4193 24.77 41.6185 25.1519C43.1391 28.1106 46.0807 30.2022 49.6664 30.8934C50.4035 31.0328 50.6624 31.0571 51.7979 31.0571C53.2056 31.0632 53.7368 31.0025 54.8922 30.7297C57.8006 30.0325 60.2044 28.347 61.6785 25.9704C61.9839 25.4854 62.555 24.3092 62.555 24.1698C62.555 24.1455 61.4594 24.1213 60.118 24.1213H57.6745L57.4885 24.3941C57.1632 24.867 56.3863 25.5642 55.7887 25.928C54.786 26.5403 53.6904 26.8859 52.4951 26.9586C51.0874 27.0496 50.0051 26.8677 48.843 26.3402C47.7474 25.8431 46.778 25.0792 46.1936 24.2607L46.0542 24.0606H43.584H41.1139L41.1869 24.2546Z" fill="white"/>
<path d="M79.5737 28.1045C79.6002 32.5788 79.6002 32.5788 80.0451 33.5186C80.7556 35.0343 82.2961 36.1923 84.1023 36.556C84.7464 36.6894 86.3732 36.6591 87.0239 36.4954C89.3082 35.9437 90.9549 34.2097 91.2404 32.0635C91.2803 31.7664 91.3068 29.984 91.3068 27.8074V24.0606H89.9124H88.518V27.862C88.518 32.0696 88.5047 32.1787 88.1063 32.8698C87.8075 33.3791 87.2431 33.8823 86.6919 34.1309C86.3002 34.3067 86.1607 34.337 85.6229 34.3552C85.1315 34.3795 84.9124 34.3552 84.5538 34.2582C83.7769 34.04 83.0863 33.4822 82.6746 32.7365C82.3625 32.1666 82.3426 31.924 82.3426 27.862V24.0606H80.9416H79.5471L79.5737 28.1045Z" fill="white"/>
<path d="M154.773 26.2614C154.754 27.2315 154.747 27.2557 154.568 27.5103C154.315 27.8559 153.963 27.9954 153.346 28.0014H152.861V29.0018V30.0022H153.684H154.514L154.534 32.2878C154.568 34.8099 154.574 34.8706 154.999 35.5193C155.245 35.8891 155.69 36.2226 156.161 36.3923C156.639 36.5621 158.047 36.5924 158.671 36.4469L159.136 36.3378L159.156 35.3617L159.169 34.3856L158.718 34.4947C158.186 34.6159 157.828 34.5796 157.483 34.3613C157.011 34.0703 157.011 34.0642 156.991 31.9544L156.971 30.0628H157.934H158.904V29.0321V28.0014H157.941H156.978V26.6373V25.2732H155.889H154.8L154.773 26.2614Z" fill="white"/>
<path d="M98.7903 27.7286C98.1064 27.8984 97.3096 28.347 96.9576 28.7532L96.7518 28.9897V28.4016V27.8195H95.4901H94.2285V32.1241V36.4287H95.4901H96.7451L96.7651 33.8035C96.785 31.2511 96.7916 31.1783 96.9311 30.8994C97.1369 30.4993 97.5884 30.1052 97.9802 29.984C98.1661 29.9233 98.5114 29.8809 98.8102 29.8809C99.627 29.8809 100.158 30.1901 100.497 30.8509C100.63 31.1116 100.636 31.2329 100.656 33.7732L100.676 36.4287H101.905H103.133L103.113 33.4094L103.093 30.3962L102.907 29.8991C102.588 29.0321 102.024 28.4076 101.207 28.0075C100.503 27.668 99.4942 27.5528 98.7903 27.7286Z" fill="white"/>
<path d="M124.574 27.7286C123.97 27.8377 123.465 28.0257 122.974 28.3106C120.304 29.887 119.886 33.1972 122.111 35.198C123.512 36.4651 125.517 36.8652 127.549 36.2771C128.127 36.1135 129.076 35.6224 129.401 35.3192L129.607 35.1252L129.136 34.5735C128.87 34.2764 128.591 33.949 128.512 33.8581L128.366 33.6883L128.047 33.9308C127.084 34.6644 125.63 34.8827 124.587 34.4583C124.05 34.24 123.518 33.7368 123.326 33.2579C123.246 33.0639 123.18 32.8941 123.18 32.882C123.18 32.8638 124.733 32.8517 126.633 32.8517C129.833 32.8517 130.092 32.8456 130.132 32.7486C130.212 32.5546 130.185 31.1905 130.099 30.8509C129.84 29.9112 129.076 28.8927 128.206 28.3531C127.21 27.7347 125.822 27.4982 124.574 27.7286ZM126.619 29.8203C126.852 29.9294 127.124 30.1234 127.23 30.2447C127.436 30.4811 127.761 31.0631 127.761 31.1965C127.761 31.2571 127.263 31.2753 125.504 31.2753C124.255 31.2753 123.246 31.2511 123.246 31.2208C123.246 31.1116 123.465 30.6933 123.651 30.4508C124.109 29.8385 124.753 29.5656 125.637 29.5959C126.128 29.6141 126.254 29.6384 126.619 29.8203Z" fill="white"/>
<path d="M164.203 27.6983C162.443 27.9712 160.975 29.1534 160.384 30.76C160.225 31.1905 160.205 31.336 160.205 32.0939C160.205 32.8456 160.225 32.9972 160.384 33.4277C160.796 34.5735 161.732 35.5375 162.921 36.065C163.751 36.4288 164.183 36.5136 165.179 36.5076C166.566 36.5015 167.589 36.1984 168.651 35.4769C168.924 35.289 169.063 35.1556 169.043 35.0949C169.03 35.0404 168.751 34.6948 168.432 34.325L167.848 33.6459L167.549 33.8884C167.071 34.2704 166.4 34.5432 165.77 34.6099C164.76 34.713 164.003 34.519 163.373 33.9855C163.054 33.7187 162.775 33.2822 162.742 32.9972L162.722 32.8214L166.155 32.8032L169.581 32.7911L169.634 32.591C169.661 32.4879 169.681 32.1242 169.681 31.7907C169.681 29.7233 168.107 28.0318 165.869 27.7044C165.385 27.6316 164.661 27.6316 164.203 27.6983ZM165.889 29.7354C166.334 29.8688 166.852 30.3114 167.078 30.76C167.41 31.3906 167.596 31.336 165.013 31.336C163.466 31.336 162.755 31.3178 162.755 31.2693C162.755 31.239 162.828 31.0632 162.921 30.8874C163.479 29.8142 164.647 29.3595 165.889 29.7354Z" fill="white"/>
<path d="M141.925 27.7589C140.849 27.9348 139.793 28.6259 139.342 29.4383C139.163 29.7597 139.149 29.8445 139.149 30.4266C139.149 31.0389 139.156 31.0813 139.375 31.4451C139.76 32.0878 140.139 32.3121 141.659 32.785C142.184 32.9487 142.735 33.1366 142.874 33.2033C143.611 33.5489 143.698 34.1916 143.054 34.5614C142.835 34.6827 142.715 34.7008 142.204 34.7008C141.659 34.7008 141.56 34.6827 141.168 34.5068C140.929 34.3977 140.59 34.1976 140.418 34.0582L140.099 33.8035L139.441 34.4038C139.083 34.7312 138.784 35.0343 138.784 35.0767C138.784 35.2101 139.661 35.8225 140.212 36.071C141.473 36.6409 143.319 36.6894 144.534 36.1862C145.112 35.9498 145.696 35.4344 145.975 34.9191C146.175 34.5493 146.188 34.4826 146.188 33.8824C146.188 33.3185 146.168 33.2033 146.009 32.9002C145.809 32.5061 145.391 32.112 144.959 31.912C144.793 31.8331 144.209 31.627 143.665 31.4572C142.483 31.0813 142.244 30.9783 142.011 30.7297C141.792 30.4872 141.792 30.2447 142.011 30.0022C142.503 29.4747 143.439 29.4686 144.295 29.9961L144.674 30.2265L145.285 29.5899L145.902 28.9533L145.617 28.6926C145.305 28.4016 144.528 28.0075 143.963 27.8559C143.525 27.7347 142.403 27.6801 141.925 27.7589Z" fill="white"/>
<path d="M136.686 27.8438C136.168 27.9954 135.318 28.4501 135.059 28.7229L134.8 28.9897V28.4016V27.8195H133.538H132.277V32.1241V36.4287H133.532H134.793L134.813 33.9551L134.833 31.4875L135.039 31.0874C135.278 30.6327 135.61 30.3053 136.055 30.1113C136.307 29.9961 136.5 29.9718 137.144 29.9536L137.921 29.9294V28.8442V27.7589L137.443 27.765C137.177 27.765 136.838 27.8013 136.686 27.8438Z" fill="white"/>
<path d="M105.915 32.1241V36.4287H107.144H108.372V32.1241V27.8195H107.144H105.915V32.1241Z" fill="white"/>
<path d="M110.032 27.856C110.032 27.8863 113.113 35.3557 113.518 36.3257C113.565 36.4227 113.678 36.4288 114.866 36.4167L116.168 36.3985L117.941 32.1242L119.707 27.8499L118.445 27.8317C117.755 27.8257 117.177 27.8257 117.164 27.8378C117.15 27.8499 116.632 29.1474 116.008 30.7298C115.391 32.3061 114.873 33.6035 114.86 33.6157C114.846 33.6338 114.461 32.6941 114.016 31.5361C113.565 30.3721 113.053 29.0686 112.881 28.6381L112.575 27.8499L111.3 27.8317C110.603 27.8257 110.032 27.8378 110.032 27.856Z" fill="white"/>
<path d="M148.412 32.1241V36.4287L149.661 36.4166L150.902 36.3984V32.1241V27.8499L149.661 27.8317L148.412 27.8195V32.1241Z" fill="white"/>
<path d="M34.4006 32.3546V34.5917L34.7526 34.81C35.6224 35.3617 36.6317 36.5076 37.0501 37.4291C37.4817 38.3749 37.5481 38.7084 37.5481 39.9755C37.5481 41.0607 37.5414 41.1578 37.3688 41.6731C37.1165 42.4128 36.738 43.11 36.2732 43.6799C35.8482 44.2013 35.0447 44.9106 34.653 45.1228L34.4006 45.2501V47.5055V49.7609L34.8123 49.6032C38.5109 48.233 41.0209 45.5108 41.8509 41.9641C41.9837 41.3821 42.0036 41.1517 42.0036 39.9149C41.997 38.6356 41.9837 38.4598 41.8177 37.7565C41.3462 35.7437 40.3768 34.0703 38.8827 32.6941C37.6344 31.5422 36.5388 30.8934 34.7526 30.2508L34.4006 30.1235V32.3546Z" fill="white"/>
<path d="M68.4846 30.4145C67.0636 30.9783 65.9945 31.6452 64.879 32.6698C63.9493 33.5186 63.3584 34.2704 62.794 35.3072C61.9639 36.835 61.612 38.1991 61.612 39.9149C61.6054 41.182 61.7714 42.1581 62.1897 43.31C63.2322 46.2081 65.4367 48.3361 68.624 49.5244L69.2615 49.7609V47.5237V45.2865L68.883 45.0501C68.4447 44.7772 67.7342 44.1285 67.3358 43.6435C66.6984 42.8614 66.207 41.6731 66.0742 40.5697C65.8152 38.4234 66.9441 36.1438 68.883 34.8828L69.2615 34.6402V32.3788C69.2615 31.142 69.2548 30.1235 69.2482 30.1235C69.2349 30.1235 68.8963 30.2568 68.4846 30.4145Z" fill="white"/>
<path d="M50.7156 35.9801C49.8125 36.1801 48.8165 36.7804 48.2521 37.4594C47.6212 38.2354 47.349 38.9751 47.349 39.9755C47.349 40.7151 47.4552 41.1395 47.8271 41.8246C48.0396 42.2308 48.2122 42.443 48.6372 42.831C49.5535 43.6677 50.4898 44.0315 51.7315 44.0375C52.5814 44.0375 52.9799 43.9527 53.77 43.6071C55.2176 42.9765 56.1539 41.6609 56.2335 40.1513C56.2933 38.9205 55.8882 37.9687 54.9254 37.0956C54.2813 36.5075 53.7368 36.2105 52.9267 36.0104C52.3424 35.8588 51.3132 35.8467 50.7156 35.9801Z" fill="white"/>
<path d="M84.9788 43.31C82.6614 43.6677 80.6694 45.0258 79.6534 46.9416C79.1554 47.8814 79.0558 48.3361 79.0624 49.6456C79.0624 50.5975 79.0824 50.84 79.2085 51.2402C79.5405 52.3315 80.1979 53.3197 81.1674 54.1745C82.5153 55.3629 84.0027 55.9267 85.935 55.9934C88.2391 56.0722 90.1117 55.4477 91.7385 54.0654L92.1701 53.6956V51.4281V49.1606H89.5473H86.9244V50.07V50.9795H88.1528H89.3813V51.8404L89.3746 52.7073L89.0824 52.9195C88.3387 53.4591 87.3958 53.7259 86.2604 53.732C85.3507 53.732 84.8659 53.635 84.1023 53.2833C82.4954 52.5497 81.5459 50.9613 81.7119 49.2819C81.7716 48.6271 81.8579 48.3482 82.19 47.7116C82.4423 47.2326 82.5817 47.0568 83.0333 46.6385C83.4649 46.2444 83.6906 46.0928 84.1422 45.8988C85.5499 45.2804 87.2431 45.335 88.5844 46.0504C88.8168 46.1777 89.2484 46.493 89.5406 46.7476L90.0785 47.2205L90.9218 46.4505C91.3932 46.0261 91.7717 45.6381 91.7717 45.5896C91.7717 45.3592 90.3042 44.2558 89.5008 43.8799C88.279 43.31 86.4596 43.0857 84.9788 43.31Z" fill="white"/>
<path d="M179.355 43.3221C178.745 43.4131 178.18 43.6798 177.842 44.0315C177.324 44.5711 177.164 45.1046 177.118 46.4445L177.078 47.463H176.427H175.77V48.4634V49.4637H176.434H177.098V52.6164V55.769H178.359H179.621V52.6164V49.4637H180.683H181.746V48.4331V47.4024H180.683H179.621V46.7294C179.621 45.9352 179.707 45.7169 180.106 45.4744C180.338 45.335 180.444 45.3107 180.876 45.3107C181.155 45.3107 181.46 45.3289 181.567 45.3592L181.746 45.4017V44.468V43.5343L181.533 43.4676C180.996 43.31 179.9 43.2372 179.355 43.3221Z" fill="white"/>
<path d="M186.341 43.3403C185.551 43.4919 184.913 43.9284 184.608 44.5165C184.342 45.0258 184.276 45.3774 184.223 46.493L184.183 47.463H183.525H182.875V48.4634V49.4637H183.539H184.203V52.6164V55.769H185.464H186.726V52.6164V49.4637H187.788H188.851V48.4331V47.4024H187.788H186.726V46.7476C186.726 45.9352 186.859 45.6442 187.33 45.4138C187.583 45.2865 187.689 45.2743 188.12 45.2986C188.393 45.3107 188.672 45.3471 188.738 45.3713C188.844 45.4138 188.851 45.3532 188.838 44.4559L188.818 43.4979L188.452 43.4191C187.981 43.3161 186.713 43.2676 186.341 43.3403Z" fill="white"/>
<path d="M172.151 43.3949C171.786 43.4798 171.52 43.6435 171.334 43.8981C171.175 44.1225 171.155 44.2073 171.155 44.6439C171.155 45.0804 171.175 45.1653 171.334 45.3835C171.806 46.0322 173.041 46.0868 173.651 45.4805C174.07 45.0683 174.09 44.3104 173.685 43.8072C173.432 43.4919 172.642 43.2797 172.151 43.3949Z" fill="white"/>
<path d="M158.904 49.6153V55.769H163.917H168.93V54.6474V53.5258L165.298 53.5137L161.659 53.4955L161.639 52.0525L161.626 50.6157H164.415H167.204V49.4637V48.3118H164.415H161.626V47.0083V45.7048H165.212H168.798V44.5832V43.4616H163.851H158.904V49.6153Z" fill="white"/>
<path d="M201.866 49.6153V55.769H203.127H204.389V49.6153V43.4616H203.127H201.866V49.6153Z" fill="white"/>
<path d="M116.46 45.5654C116.44 46.4142 116.42 46.5536 116.294 46.7779C116.048 47.1902 115.809 47.3054 115.132 47.3297L114.547 47.3539V48.3785V49.4031H115.371H116.201L116.221 51.7191C116.241 53.9927 116.247 54.0472 116.4 54.4049C116.725 55.1567 117.23 55.5872 118.033 55.8055C118.591 55.957 119.733 55.957 120.377 55.8055L120.856 55.6963V54.7263V53.7562L120.709 53.7987C120.623 53.8229 120.318 53.8532 120.025 53.8654C119.561 53.8896 119.461 53.8775 119.229 53.7562C119.056 53.6653 118.91 53.5198 118.817 53.344C118.671 53.0833 118.664 53.0226 118.664 51.2402V49.4092L119.647 49.391L120.623 49.3728V48.3725V47.3721L119.647 47.3539L118.664 47.3357V45.9777V44.6135H117.575H116.486L116.46 45.5654Z" fill="white"/>
<path d="M125.968 47.0447C125.49 47.0932 124.853 47.269 124.322 47.5115C123.95 47.6752 123.034 48.3543 122.921 48.5422C122.868 48.6392 122.967 48.7544 123.532 49.2697L124.215 49.8881L124.408 49.7063C125.205 48.9484 126.971 48.809 127.648 49.4516C127.848 49.6396 128.027 49.9973 128.027 50.2095C128.027 50.3429 127.98 50.355 126.42 50.6096C124.554 50.9128 124.01 51.0583 123.492 51.3675C122.761 51.8101 122.376 52.3618 122.257 53.1257C122.13 53.932 122.383 54.6171 123.014 55.1567C123.85 55.8843 125.245 56.1328 126.393 55.7691C126.925 55.6054 127.476 55.3204 127.781 55.0537L128.027 54.8354V55.3325V55.8297H129.295H130.557L130.537 52.7862C130.517 49.779 130.51 49.7305 130.364 49.3425C130.139 48.7787 129.913 48.4513 129.435 48.0269C128.598 47.269 127.31 46.9053 125.968 47.0447ZM128.027 52.1011C128.027 52.8407 127.748 53.4167 127.223 53.7683C126.872 53.9987 126.52 54.0897 125.962 54.0836C125.105 54.0836 124.694 53.7744 124.694 53.1499C124.7 52.774 124.866 52.5073 125.212 52.3315C125.417 52.2284 127.403 51.8222 127.947 51.7737C128 51.7676 128.027 51.8707 128.027 52.1011Z" fill="white"/>
<path d="M146.912 47.0447C145.384 47.2084 143.877 48.2027 143.2 49.488C142.801 50.2459 142.675 50.8218 142.715 51.6706C142.781 52.8832 143.246 53.7987 144.236 54.6474C144.827 55.1567 145.404 55.472 146.121 55.6902C146.606 55.8418 146.739 55.8539 147.682 55.8539C148.851 55.8539 149.395 55.7509 150.232 55.375C150.716 55.1628 151.6 54.5868 151.6 54.4898C151.6 54.4292 150.411 53.0408 150.358 53.0408C150.338 53.0408 150.185 53.1499 150.019 53.2833C149.641 53.5925 149.036 53.8593 148.492 53.9563C147.974 54.0472 147.164 53.9987 146.726 53.8472C146.214 53.6713 145.69 53.2469 145.444 52.8044C145.059 52.1253 144.714 52.192 148.671 52.192H152.111L152.157 51.9131C152.496 49.6456 151.141 47.6934 148.857 47.166C148.246 47.0204 147.509 46.978 146.912 47.0447ZM148.512 49.1242C148.704 49.2031 148.99 49.3849 149.143 49.5244C149.435 49.7911 149.74 50.3065 149.74 50.5369V50.6763H147.476H145.218L145.265 50.5369C145.524 49.7608 146.241 49.1303 147.031 48.9787C147.469 48.8939 148.113 48.9545 148.512 49.1242Z" fill="white"/>
<path d="M194.389 47.0447C192.862 47.2084 191.354 48.2027 190.677 49.488C190.279 50.2459 190.152 50.8218 190.192 51.6706C190.259 52.8832 190.723 53.7987 191.713 54.6474C192.304 55.1567 192.881 55.472 193.599 55.6902C194.083 55.8418 194.216 55.8539 195.159 55.8539C196.328 55.8539 196.872 55.7509 197.709 55.375C198.194 55.1628 199.077 54.5868 199.077 54.4898C199.077 54.4292 197.888 53.0408 197.835 53.0408C197.815 53.0408 197.662 53.1499 197.496 53.2833C197.118 53.5925 196.514 53.8593 195.969 53.9563C195.451 54.0472 194.641 53.9987 194.203 53.8472C193.692 53.6713 193.167 53.2469 192.921 52.8044C192.536 52.1253 192.191 52.192 196.148 52.192H199.588L199.634 51.9131C200.026 49.3001 198.194 47.2023 195.358 47.0204C195.086 47.0023 194.648 47.0144 194.389 47.0447ZM195.989 49.1242C196.182 49.2031 196.467 49.3849 196.62 49.5244C196.912 49.7911 197.217 50.3065 197.217 50.5369V50.6763H194.953H192.696L192.742 50.5369C193.001 49.7608 193.718 49.1303 194.508 48.9787C194.947 48.8939 195.591 48.9545 195.989 49.1242Z" fill="white"/>
<path d="M108.77 47.1356C107.755 47.3357 106.752 48.0086 106.34 48.7726C106.168 49.0939 106.148 49.1909 106.148 49.7365C106.148 50.264 106.168 50.3853 106.32 50.6763C106.672 51.3553 107.223 51.6888 108.684 52.1253C109.972 52.5072 110.397 52.7558 110.47 53.1741C110.523 53.453 110.371 53.7198 110.052 53.9017C109.833 54.0229 109.713 54.0411 109.202 54.0411C108.644 54.0411 108.565 54.0229 108.146 53.835C107.901 53.7198 107.562 53.5137 107.396 53.3863L107.097 53.1438L106.44 53.7441C105.962 54.1806 105.789 54.3806 105.816 54.4534C105.842 54.508 106.048 54.6898 106.267 54.8596C108.12 56.2541 111.42 56.1934 112.675 54.7444C113.08 54.2776 113.239 53.8471 113.239 53.1923C113.239 51.9313 112.662 51.3917 110.683 50.7915C109.302 50.3731 108.903 50.1246 108.903 49.7062C108.903 49.2515 109.342 48.9605 110.032 48.9544C110.537 48.9484 110.968 49.0818 111.393 49.3788L111.686 49.5789L112.316 48.9302L112.954 48.2815L112.615 47.9905C111.732 47.2326 110.099 46.8688 108.77 47.1356Z" fill="white"/>
<path d="M94.7797 50.0822C94.8129 53.3076 94.8195 53.3864 95.2511 54.1927C95.9018 55.4235 97.4623 56.1328 98.9962 55.8964C99.5871 55.7994 100.603 55.3689 100.955 55.0537L101.201 54.8354V55.3325V55.8297H102.462H103.724V51.5251V47.2205H102.462H101.201V49.7245C101.201 52.5133 101.187 52.6467 100.762 53.1681C100.636 53.3258 100.397 53.5137 100.191 53.6228C99.8727 53.7805 99.7797 53.7987 99.2419 53.7987C98.704 53.7987 98.611 53.7805 98.2923 53.6168C97.9005 53.4228 97.6881 53.2166 97.4623 52.8347C97.3162 52.5922 97.3162 52.5376 97.2963 49.87L97.2764 47.1599H96.0081H94.7465L94.7797 50.0822Z" fill="white"/>
<path d="M132.151 47.4752C132.224 47.6511 133.02 49.5851 133.923 51.7677L135.564 55.7388H136.885H138.213L139.953 51.4949C140.916 49.1607 141.699 47.2327 141.699 47.2024C141.706 47.1782 141.128 47.166 140.431 47.1721L139.149 47.1903L138.027 50.1186C137.263 52.1012 136.885 53.0166 136.845 52.956C136.812 52.9075 136.301 51.5919 135.71 50.0277L134.627 47.1903L133.319 47.1721L132.018 47.16L132.151 47.4752Z" fill="white"/>
<path d="M171.321 51.4645V55.769H172.549H173.778V51.4645V47.1599H172.549H171.321V51.4645Z" fill="white"/>
<path d="M50.762 48.8029C48.2719 49.003 45.8881 49.9548 44.082 51.4645C43.4379 52.004 42.6211 52.9256 42.1364 53.6653C41.8044 54.1745 41.1072 55.5629 41.1072 55.7145C41.1072 55.7448 42.0434 55.769 43.5242 55.769H45.9412L46.2799 55.3507C47.8602 53.4046 50.6093 52.4588 53.2587 52.9498C54.7926 53.2409 56.2932 54.0957 57.2561 55.2355L57.6611 55.7084H60.1113C61.4526 55.7084 62.5549 55.6963 62.5549 55.6781C62.5549 55.5568 61.539 53.8108 61.1937 53.3439C59.2747 50.7248 56.2534 49.0939 52.7939 48.8029C51.9506 48.7301 51.6518 48.7301 50.762 48.8029Z" fill="white"/>
<path d="M286.577 10.5276C285.595 10.5849 284.287 10.7403 283.264 10.9284C278.7 11.7628 274.675 13.6115 270.953 16.5726C269.8 17.4969 267.632 19.6646 266.708 20.818C263.379 24.998 261.309 29.8487 260.565 35.2556C260.385 36.5562 260.311 40.0818 260.434 41.4806C260.982 47.5174 263.264 53.047 267.076 57.5869C268.025 58.7158 269.923 60.5808 270.994 61.4397C277.383 66.5522 285.473 68.5317 293.44 66.9448C303.092 65.0225 311.215 57.6851 314.34 48.0736C315.33 45.0307 315.771 42.225 315.771 38.9775C315.771 35.6401 315.313 32.8262 314.266 29.6933C312.884 25.5624 310.708 22.0041 307.64 18.863C306.332 17.5297 305.604 16.8835 304.229 15.861C299.24 12.1227 292.728 10.1513 286.577 10.5276ZM289.931 11.043C297.767 11.6319 304.81 15.5092 309.604 21.8814C314.34 28.18 316.229 36.0818 314.88 43.91C314.07 48.5971 312.238 52.7117 309.227 56.6053C308.36 57.726 305.947 60.1718 304.859 61.0389C301.399 63.7792 297.628 65.5706 293.399 66.4622C291.281 66.9121 288.115 67.1084 285.923 66.9203C279.477 66.3558 273.735 63.6728 269.105 59.0593C266.798 56.7526 265.236 54.5685 263.755 51.5747C262.323 48.6626 261.53 46.0614 261.056 42.6912C260.867 41.4151 260.802 37.8732 260.933 36.4663C261.677 28.2372 265.8 20.908 272.409 16.09C277.473 12.3927 283.747 10.5849 289.931 11.043Z" fill="white"/>
<path d="M285.849 12.6462C285.653 12.8425 285.653 15.7955 285.857 15.9918C285.972 16.1063 286.16 16.1227 287.207 16.0982L288.418 16.0736V16.6217V17.1779H288.745H289.072V15.6237V14.0695H289.399H289.726V15.6237V17.1779H290.054H290.381V14.8466V12.5153H290.054H289.726V13.047V13.5787H289.399H289.072V13.047V12.5153H288.745H288.418V14.0286V15.5419H287.395H286.373V14.3149V13.0961L287.052 13.0716L287.722 13.047L287.747 12.7771L287.771 12.5153H286.872C286.168 12.5153 285.947 12.5399 285.849 12.6462Z" fill="white"/>
<path d="M280.663 13.4642C280.401 13.5787 280.401 13.5869 280.507 13.8487C280.573 13.9877 280.835 14.6176 281.096 15.2393C281.358 15.8528 281.554 16.3763 281.538 16.3845C281.522 16.4008 280.712 16.7444 279.747 17.1452C278.111 17.8323 277.988 17.8978 278.013 18.0859C278.021 18.1922 278.062 18.3068 278.094 18.3313C278.168 18.4049 281.554 16.9734 281.636 16.8344C281.718 16.7035 281.726 16.7117 281.947 17.2597C282.053 17.5051 282.16 17.7423 282.201 17.7751C282.242 17.8241 282.577 17.7342 282.757 17.6196C282.79 17.5951 281.055 13.4724 280.99 13.407C280.957 13.3742 280.81 13.407 280.663 13.4642Z" fill="white"/>
<path d="M294.52 13.7096C294.487 13.8323 294.495 13.955 294.528 13.9877C294.561 14.0205 295.142 14.2577 295.82 14.5113C296.957 14.9448 297.047 14.9693 297.146 14.8385C297.334 14.5849 297.26 14.4949 296.761 14.3068C296.328 14.1513 296.27 14.1104 296.319 13.955C296.409 13.6524 296.401 13.636 296.123 13.5542C295.845 13.4724 295.763 13.5133 295.673 13.7832C295.649 13.8569 295.493 13.816 294.667 13.5215C294.618 13.5051 294.544 13.5869 294.52 13.7096Z" fill="white"/>
<path d="M278.274 14.3395C277.849 14.4785 277.244 15.1084 277.178 15.4847C277.105 15.8937 277.35 16.4254 277.718 16.6462C278.553 17.137 280.025 16.4581 280.205 15.4929C280.27 15.1329 280.041 14.6585 279.673 14.4213C279.362 14.2086 278.782 14.1759 278.274 14.3395ZM279.346 14.9612C279.747 15.3702 279.624 15.8528 279.035 16.1473C278.626 16.3518 278.225 16.319 277.988 16.0655C277.735 15.7955 277.726 15.4683 277.964 15.1738C278.34 14.6912 278.978 14.5931 279.346 14.9612Z" fill="white"/>
<path d="M294.577 14.5358C294.307 14.5931 293.98 15.0184 293.98 15.3211C293.98 15.9837 294.806 16.5645 295.755 16.5645C296.205 16.5645 296.295 16.5399 296.491 16.3354C296.778 16.0573 296.802 15.5747 296.548 15.2393C296.213 14.7976 295.15 14.4131 294.577 14.5358ZM295.747 15.2229C296.115 15.4438 296.197 15.7628 295.943 15.9673C295.722 16.1473 295.542 16.1555 295.182 16C294.683 15.7955 294.479 15.4029 294.733 15.1493C294.888 14.9939 295.444 15.0348 295.747 15.2229Z" fill="white"/>
<path d="M297.677 15.9755C297.399 16.7035 297.203 17.3252 297.244 17.3661C297.276 17.3988 297.407 17.4397 297.538 17.4479C297.751 17.4643 297.784 17.4234 297.972 16.9735C298.078 16.7035 298.184 16.4663 298.201 16.4499C298.217 16.4336 298.381 16.4827 298.569 16.5563C298.757 16.6299 298.921 16.6872 298.929 16.6708C298.945 16.6544 298.978 16.5481 299.011 16.4172C299.068 16.2127 299.043 16.18 298.757 16.0655C298.577 15.9919 298.422 15.9182 298.413 15.9101C298.397 15.8937 298.462 15.6728 298.552 15.4111C298.741 14.9203 298.732 14.8957 298.389 14.7485L298.176 14.6585L297.677 15.9755Z" fill="white"/>
<path d="M293.661 16.5726C293.612 16.6953 293.579 16.8016 293.587 16.818C293.604 16.8344 294.315 17.1043 295.166 17.4315C296.025 17.7505 296.753 18.045 296.786 18.0777C296.818 18.1104 296.777 18.3313 296.687 18.5767C296.483 19.1084 296.483 19.1084 296.663 19.1656C296.736 19.182 296.859 19.2311 296.933 19.2638C297.047 19.3047 297.121 19.1902 297.325 18.6585C297.456 18.2904 297.554 17.9387 297.53 17.8732C297.505 17.8078 297.203 17.6442 296.859 17.5133C295.64 17.047 293.816 16.3599 293.792 16.3599C293.775 16.3599 293.718 16.4581 293.661 16.5726Z" fill="white"/>
<path d="M271.403 18.3395C270.569 19.0675 269.857 19.7055 269.825 19.771C269.743 19.91 269.89 20.1554 270.373 20.6626C270.798 21.0961 270.765 21.1043 271.608 20.3763C272.115 19.9346 272.189 19.8937 272.303 20.0082C272.434 20.1391 272.311 20.2863 271.215 21.227L270.733 21.636L270.929 21.8241L271.125 22.0041L273.023 20.3599L274.912 18.7157L274.773 18.5194C274.7 18.4131 274.618 18.3231 274.593 18.3231C274.569 18.3231 274.193 18.6339 273.751 19.0184C273.097 19.5828 272.917 19.7055 272.827 19.6237C272.761 19.5746 272.712 19.501 272.712 19.4683C272.712 19.4356 273.007 19.1493 273.366 18.8466C273.726 18.5358 274.021 18.2577 274.021 18.2331C274.021 18.2004 273.955 18.0941 273.874 17.9959L273.726 17.816L272.311 19.0511C271.542 19.7301 270.888 20.2863 270.872 20.2863C270.855 20.2863 270.765 20.18 270.675 20.0573L270.512 19.82L271.902 18.6176C272.663 17.9468 273.285 17.3824 273.285 17.3497C273.285 17.2843 273.015 17.0143 272.949 17.0143C272.933 17.0143 272.238 17.6115 271.403 18.3395Z" fill="white"/>
<path d="M302.593 17.5215C302.544 17.5788 302.487 17.6687 302.462 17.7178C302.43 17.7751 302.929 18.2577 303.673 18.8957C304.777 19.8364 304.933 20 304.843 20.1146C304.786 20.1882 304.417 20.6217 304.025 21.0716L303.313 21.8978L303.501 22.0777C303.608 22.1759 303.747 22.2332 303.812 22.2086C303.918 22.1677 305.473 20.4009 305.628 20.1473C305.661 20.09 305.653 19.9919 305.62 19.9264C305.546 19.7874 302.806 17.4234 302.724 17.4234C302.691 17.4234 302.634 17.4724 302.593 17.5215Z" fill="white"/>
<path d="M285.743 18.4458C278.765 19.3293 272.696 23.8282 269.816 30.2495C267.6 35.1902 267.338 40.7526 269.088 45.8896C270.593 50.3149 273.726 54.2577 277.702 56.728C280.082 58.2004 283.084 59.2311 285.955 59.5583C287.362 59.7137 290.176 59.6156 291.526 59.3538C294.61 58.773 297.309 57.6115 299.714 55.8528C304.548 52.319 307.583 46.8712 308.131 40.7362C308.597 35.4356 306.896 29.8978 303.51 25.726C302.683 24.7117 300.982 23.0675 299.951 22.2986C297.35 20.3599 294.422 19.1166 291.158 18.5603C289.857 18.3395 287.06 18.2822 285.743 18.4458ZM291.141 19.0511C293.285 19.4274 294.585 19.8528 296.475 20.7771C298.544 21.7832 300.123 22.9121 301.759 24.5399C304.966 27.7383 306.953 31.8201 307.575 36.4826C307.706 37.4806 307.706 40.5644 307.575 41.5133C307.043 45.2761 305.726 48.5154 303.542 51.4192C302.765 52.4499 301.26 54.0041 300.238 54.8303C297.366 57.1452 293.882 58.6258 290.299 59.0593C289.178 59.1902 286.757 59.1738 285.595 59.0184C282.602 58.6258 279.959 57.6278 277.448 55.9591C271.42 51.9591 268.058 45.1534 268.467 37.7751C268.9 29.865 273.849 22.9693 281.17 20.09C282.667 19.4929 284.262 19.1248 286.373 18.863C286.528 18.8466 287.452 18.8385 288.418 18.8548C289.743 18.8712 290.413 18.9203 291.141 19.0511Z" fill="white"/>
<path d="M287.076 24.18C285.334 24.8916 281.955 25.7832 277.906 26.5931C276.557 26.863 275.428 27.1084 275.395 27.1411C275.362 27.1738 275.362 29.0389 275.403 31.2884C275.452 33.7832 275.444 37.3333 275.395 40.3845C275.33 44.8834 275.33 45.4479 275.452 45.9059C276.148 48.638 279.15 51.3374 284.369 53.9141C285.268 54.3558 286.463 54.9039 287.011 55.1248L288.025 55.5256L288.442 55.3783C289.89 54.8794 292.638 53.5542 294.405 52.4908C297.399 50.6912 299.371 48.8589 300.238 47.0757C300.827 45.8569 300.851 45.636 300.769 41.6769C300.688 37.726 300.679 30.4295 300.753 28.5153C300.786 27.8037 300.794 27.1902 300.769 27.1575C300.745 27.1166 299.608 26.863 298.234 26.5931C294.045 25.7505 289.71 24.589 288.508 23.9755C288.328 23.8773 288.131 23.8037 288.074 23.8119C288.017 23.8119 287.567 23.9755 287.076 24.18ZM291.575 29.4888C292.925 30.3313 292.9 32.5481 291.526 34.0532C290.536 35.1411 288.45 36.1063 286.553 36.3599C286.029 36.4335 286.005 36.4826 286.005 37.7914C286.005 38.634 286.029 38.7812 286.217 39.1902C286.733 40.2945 287.853 40.5072 289.252 39.7792C290.618 39.0675 291.788 37.5378 292.467 35.5828C292.818 34.5685 292.966 34.3558 292.884 34.9857C292.745 36.0736 292.238 37.5378 291.624 38.6176C290.315 40.8998 288.262 42.1186 286.217 41.8241C285.538 41.726 284.794 41.4315 284.36 41.1043C284.213 40.9898 284.074 40.8998 284.05 40.8998C284.025 40.8998 284 43.5338 284 46.7485C284 49.9632 283.976 52.5971 283.951 52.5971C283.821 52.5971 281.743 51.3702 280.892 50.7894C278.463 49.1452 276.998 47.5501 276.483 45.9959C276.328 45.5297 276.311 45.2924 276.311 43.3538V41.227H278.34C279.853 41.227 280.491 41.1943 280.884 41.1043C282.454 40.728 283.624 39.4929 284.09 37.7342C284.328 36.818 284.385 35.272 284.213 34.2822L284.082 33.5133L284.287 33.1616C285.203 31.5992 286.708 30.2086 288.107 29.6442C288.99 29.2843 289.391 29.2025 290.307 29.227C291.109 29.2434 291.199 29.2597 291.575 29.4888ZM284 31.7546L283.992 33.2515L283.78 32.8016C283.51 32.2454 282.855 31.5747 282.307 31.2965C281.857 31.0757 280.818 30.7567 280.483 30.7485C280.295 30.7485 280.295 30.7403 280.442 30.683C280.598 30.6176 282.904 30.3477 283.821 30.2822L284 30.2659V31.7546ZM295.837 30.6749C296.459 30.7648 297.178 30.8794 297.44 30.9366L297.915 31.0266L297.89 34.7158L297.865 38.4049L297.653 38.863C297.342 39.5174 297.007 39.7137 296.148 39.7137C295.403 39.7137 295.043 39.5665 294.741 39.1166C294.422 38.634 294.389 38.2004 294.389 34.274C294.389 30.6012 294.389 30.5113 294.544 30.5113C294.634 30.5113 295.215 30.5849 295.837 30.6749ZM280.859 32.7607C281.375 33.0307 281.784 33.5215 281.964 34.0941C282.103 34.544 282.152 36.3845 282.045 37.0307C281.923 37.7669 281.538 38.5276 281.121 38.8875C280.622 39.3129 280.197 39.4274 279.076 39.4274H278.111V35.9427V32.4581L279.24 32.4908C280.311 32.5153 280.401 32.5317 280.859 32.7607ZM292.737 40.1554C293.367 40.9407 294.463 41.4397 295.755 41.5215C297.456 41.6278 299.011 41.0061 299.722 39.9182C299.853 39.7219 299.861 39.8691 299.861 42.3722C299.87 44.3517 299.837 45.1697 299.755 45.5706C299.379 47.3293 297.735 49.1697 294.839 51.0675C294.029 51.5992 292.279 52.5971 292.164 52.5971C292.123 52.5971 292.099 49.5133 292.099 45.7423V38.8957L292.303 39.3783C292.409 39.6483 292.606 39.9918 292.737 40.1554ZM286.045 47.5665V48.8344H285.8H285.555V47.9346V47.0348H285.26C285.031 47.0348 284.974 47.0021 284.998 46.8957C285.015 46.8221 285.146 46.7321 285.285 46.6912C285.432 46.6503 285.587 46.5522 285.636 46.4622C285.686 46.3722 285.8 46.2986 285.882 46.2986C286.037 46.2986 286.045 46.364 286.045 47.5665ZM287.395 46.3477C287.641 46.4458 287.763 46.8385 287.763 47.5092C287.763 48.5317 287.591 48.8344 287.019 48.8344C286.716 48.8344 286.454 48.638 286.454 48.409C286.454 48.2209 286.765 48.2045 286.896 48.3926C287.035 48.5808 287.272 48.4499 287.272 48.1881C287.272 47.9837 287.248 47.9673 286.994 48C286.561 48.0491 286.373 47.8119 286.373 47.1984C286.373 46.7812 286.405 46.6667 286.577 46.5031C286.773 46.2986 287.109 46.2413 287.395 46.3477ZM289.293 46.5603C289.26 46.6667 289.129 47.0757 288.998 47.4847C288.859 47.8855 288.728 48.3599 288.704 48.5235C288.663 48.7853 288.622 48.8344 288.459 48.8344C288.279 48.8344 288.254 48.7935 288.254 48.5562C288.254 48.319 288.524 47.4438 288.786 46.8466C288.835 46.7239 288.794 46.7076 288.385 46.7076C287.984 46.7076 287.927 46.6912 287.927 46.544C287.927 46.3967 287.984 46.3804 288.63 46.3804C289.326 46.3804 289.334 46.3804 289.293 46.5603ZM290.872 46.4867C290.872 46.5522 290.782 46.8221 290.667 47.1002C290.553 47.3783 290.422 47.8037 290.373 48.0409C290.332 48.2699 290.274 48.5481 290.25 48.6462C290.225 48.7853 290.152 48.8344 290.013 48.8344C289.841 48.8344 289.808 48.7935 289.808 48.5808C289.808 48.2945 290.168 47.1657 290.348 46.8875C290.463 46.7076 290.463 46.7076 289.972 46.7076C289.538 46.7076 289.481 46.6912 289.481 46.544C289.481 46.3967 289.538 46.3804 290.176 46.3804C290.7 46.3804 290.872 46.4049 290.872 46.4867Z" fill="white"/>
<path d="M289.604 29.8242C288.589 30.3477 287.452 32.1882 286.61 34.6749C286.168 35.9755 286.16 35.951 286.937 35.6319C288.164 35.133 289.293 34.0368 289.964 32.7035C290.193 32.2373 290.438 31.6238 290.512 31.3375C290.659 30.7567 290.634 30.0205 290.471 29.8242C290.332 29.6606 289.923 29.6606 289.604 29.8242Z" fill="white"/>
<path d="M286.97 46.683C286.904 46.7076 286.863 46.8794 286.863 47.1575C286.863 47.4356 286.904 47.6074 286.97 47.6319C287.19 47.7055 287.272 47.5828 287.272 47.1575C287.272 46.7321 287.19 46.6094 286.97 46.683Z" fill="white"/>
<path d="M301.342 19.5583C301.006 19.9591 300.696 20.2863 300.647 20.2782C300.606 20.2782 300.442 20.1718 300.287 20.0409L300.008 19.8037L299.845 20.0082C299.755 20.1227 299.714 20.2454 299.755 20.2782C299.796 20.3191 300.614 21.0144 301.571 21.8323C303.256 23.272 303.321 23.3211 303.477 23.182C303.559 23.1084 303.632 23.0021 303.624 22.953C303.624 22.9039 303.313 22.6013 302.937 22.2904C302.356 21.8078 302.266 21.7015 302.356 21.5951C302.413 21.5297 302.708 21.1779 303.011 20.818L303.559 20.1636L303.33 19.9837C303.207 19.8773 303.084 19.7955 303.06 19.8037C303.035 19.8037 302.741 20.1309 302.405 20.5399C302.07 20.9407 301.775 21.2679 301.751 21.2679C301.694 21.2597 301.178 20.7935 301.178 20.7444C301.178 20.7281 301.456 20.3845 301.792 19.9919C302.127 19.5992 302.405 19.2557 302.405 19.2229C302.405 19.1984 302.299 19.0921 302.176 19.0021L301.947 18.8303L301.342 19.5583Z" fill="white"/>
<path d="M273.955 20.0082C272.966 20.499 272.139 21.5787 272.262 22.2168C272.328 22.593 272.687 22.9611 273.047 23.0266C273.71 23.1493 275.084 22.2413 275.485 21.4069C275.796 20.7607 275.64 20.1309 275.125 19.91C274.724 19.7464 274.438 19.771 273.955 20.0082ZM274.921 20.5317C275.231 20.8425 275.084 21.2679 274.479 21.8241C274.274 22.0123 273.939 22.2495 273.743 22.3476C273.432 22.4949 273.342 22.5112 273.162 22.4294C272.655 22.1922 272.769 21.6033 273.44 21.0143C274.144 20.3845 274.626 20.2372 274.921 20.5317Z" fill="white"/>
<path d="M267.109 27.0348C266.692 27.4438 266.994 28.1718 267.583 28.1718C268.123 28.1718 268.426 27.6565 268.18 27.1739C267.968 26.7649 267.436 26.6994 267.109 27.0348Z" fill="white"/>
<path d="M308.254 27.0348C307.82 27.4602 308.123 28.1718 308.745 28.1718C309.407 28.1718 309.653 27.3456 309.121 26.9366C308.9 26.7649 308.475 26.8139 308.254 27.0348Z" fill="white"/>
<path d="M308.81 33.0061C308.843 33.0716 308.884 33.3088 308.917 33.5378C308.966 33.9305 309.047 34.0368 309.154 33.865C309.178 33.8159 309.276 33.7832 309.358 33.7832C309.546 33.7832 311.076 34.4458 311.076 34.5276C311.076 34.5603 310.724 34.8875 310.299 35.2556C309.865 35.6237 309.481 35.9918 309.44 36.0654C309.358 36.2209 309.424 36.8753 309.53 36.9407C309.571 36.9652 309.604 36.9489 309.604 36.8998C309.604 36.8507 310.094 36.3763 310.692 35.8446L311.788 34.8793L312.63 34.7403C313.407 34.6094 313.481 34.6094 313.677 34.7321C313.874 34.863 313.882 34.863 313.833 34.6748C313.808 34.5685 313.759 34.2822 313.726 34.045C313.694 33.8078 313.636 33.5951 313.604 33.5705C313.563 33.546 313.53 33.5624 313.53 33.6114C313.53 33.7587 313.187 33.8896 312.426 34.0368L311.69 34.1759L310.422 33.6033C308.745 32.8507 308.753 32.8507 308.81 33.0061Z" fill="white"/>
<path d="M262.692 34.1922C262.536 35.4111 262.577 35.861 262.888 36.4663C263.436 37.5215 264.851 37.9714 265.939 37.4397C266.716 37.0552 267.076 36.4254 267.272 35.0839C267.338 34.6176 267.412 34.1023 267.444 33.9468C267.477 33.7178 267.469 33.6769 267.387 33.7587C267.232 33.9141 266.814 33.8896 264.949 33.6278C263.665 33.4479 263.232 33.3497 263.06 33.227L262.839 33.0634L262.692 34.1922ZM264.737 34.3149C266.978 34.6258 266.741 34.544 266.741 35.0021C266.741 36.27 265.857 37.0307 264.622 36.8262C263.706 36.6708 263.142 36.0082 263.142 35.0839C263.142 34.7076 263.207 34.1104 263.256 34.1104C263.264 34.1104 263.927 34.2004 264.737 34.3149Z" fill="white"/>
<path d="M309.456 39.3783L309.424 41.1125L309.751 41.2106C310.193 41.3415 310.184 41.3497 310.045 41.0143C309.972 40.8425 309.931 40.5481 309.947 40.3027L309.972 39.8773L311.812 39.9018C313.121 39.9264 313.718 39.9673 313.882 40.0409L314.103 40.1472V39.5419V38.9284L313.923 39.0511C313.767 39.1575 313.432 39.182 311.878 39.182H310.013V38.6585C310.013 38.2904 310.053 38.1104 310.135 38.0368C310.291 37.9059 310.274 37.8896 309.833 37.7587L309.481 37.6442L309.456 39.3783Z" fill="white"/>
<path d="M263.788 38.9612C262.871 39.3047 262.332 39.9509 262.152 40.9489C261.996 41.7669 262.356 42.8303 262.953 43.362C263.493 43.8364 263.853 43.9673 264.614 43.9673C265.235 43.9673 265.358 43.9427 265.743 43.7219C266.528 43.2883 266.912 42.6667 266.97 41.7096C267.035 40.5562 266.577 39.6319 265.677 39.1493C265.154 38.863 264.278 38.7812 263.788 38.9612ZM265.604 39.8609C265.833 39.9836 266.045 40.1881 266.201 40.4335C267.002 41.726 266.062 43.1902 264.426 43.1902C263.33 43.1902 262.651 42.5358 262.651 41.4724C262.651 40.7853 263.051 40.1881 263.755 39.8446C264.238 39.5992 265.129 39.6155 265.604 39.8609Z" fill="white"/>
<path d="M309.203 42.7157C309.08 43.4519 309.08 43.4519 309.309 43.3456C309.456 43.272 309.923 43.3211 311.371 43.5583C313.154 43.8364 313.596 43.9673 313.62 44.1963C313.636 44.319 313.849 43.2883 313.857 43.0675C313.857 42.9448 313.833 42.9366 313.759 43.0102C313.612 43.1575 313.244 43.1329 311.534 42.863C309.8 42.5849 309.473 42.5031 309.366 42.3149C309.317 42.2249 309.268 42.3313 309.203 42.7157Z" fill="white"/>
<path d="M267.101 44.5563C266.953 44.7526 266.634 44.8916 265.195 45.3906C263.837 45.8651 263.403 45.9796 263.174 45.9469C262.855 45.8896 262.855 45.8814 263.141 46.6258C263.264 46.9448 263.289 46.9694 263.338 46.8058C263.371 46.7076 263.501 46.5685 263.632 46.5031C263.943 46.3395 266.43 45.4724 266.503 45.497C266.528 45.5133 266.045 46.315 265.415 47.2802C264.72 48.3681 264.238 49.2025 264.156 49.4724C264.082 49.7178 264.041 49.9223 264.058 49.9387C264.074 49.955 264.99 49.6606 266.086 49.2761C267.698 48.7117 268.156 48.5808 268.426 48.6135L268.761 48.6462L268.597 48.1309L268.426 47.6074L268.254 47.8119C268.066 48.0409 267.894 48.1227 266.315 48.6708C265.685 48.8916 265.186 49.0225 265.211 48.9734C265.227 48.9162 265.767 48.0491 266.405 47.043L267.567 45.2188L267.42 44.7689L267.272 44.3272L267.101 44.5563Z" fill="white"/>
<path d="M308.532 45.1861C307.894 46.544 308.278 47.6892 309.358 47.6892C309.816 47.6892 310.209 47.4356 310.749 46.7976C311.379 46.0532 311.886 45.8732 312.262 46.2577C312.679 46.6667 312.483 47.4847 311.796 48.2291L311.46 48.589H311.919H312.377L312.647 48.0409C313.006 47.3047 313.064 46.4867 312.794 45.9305C312.597 45.5297 312.393 45.3579 312 45.2434C311.575 45.1207 311.199 45.3252 310.381 46.1268C309.718 46.773 309.587 46.8712 309.342 46.8712C308.966 46.8712 308.786 46.6667 308.786 46.2332C308.786 45.7914 308.884 45.5542 309.235 45.1698L309.522 44.8426L309.301 44.7935C309.17 44.7608 309.006 44.7199 308.925 44.6953C308.81 44.6626 308.728 44.7689 308.532 45.1861Z" fill="white"/>
<path d="M307.518 48.8507C307.191 49.0307 306.97 49.2924 306.643 49.8977C306.463 50.2331 306.242 50.6258 306.16 50.7566L306.013 51.0102H306.274C306.446 51.0102 307.052 51.2965 308.09 51.8609C309.857 52.8098 309.931 52.8671 310.054 53.0797C310.127 53.2188 310.168 53.1697 310.43 52.6871L310.724 52.139L310.495 52.1718C310.315 52.1963 309.898 52.0082 308.769 51.4029C306.716 50.3067 306.88 50.4376 307.06 50.0777C307.371 49.4724 307.812 49.2842 308.27 49.5624C308.614 49.775 308.761 50.2413 308.638 50.7076L308.557 51.0429H308.949C309.489 51.0429 311.248 50.7321 311.444 50.6012C311.534 50.5358 311.714 50.3067 311.837 50.0777L312.066 49.6605L311.551 49.865C311.101 50.0532 309.62 50.3885 309.26 50.3885C309.146 50.3885 309.113 50.3149 309.113 50.0613C309.113 49.3333 308.63 48.7525 308.025 48.7525C307.837 48.7525 307.608 48.8016 307.518 48.8507Z" fill="white"/>
<path d="M267.583 50.1268C266.413 50.544 265.767 51.6074 265.996 52.7444C266.16 53.5542 266.757 54.5849 267.42 55.1984L267.624 55.3865L268.548 54.7976C269.064 54.4786 269.489 54.2004 269.505 54.1841C269.522 54.1759 269.407 53.9796 269.252 53.7424C268.99 53.3497 268.966 53.3334 268.916 53.5215C268.884 53.6524 268.647 53.8651 268.238 54.135L267.599 54.5522L267.37 54.3313C266.25 53.2679 266.422 51.6238 267.722 50.9366C268.311 50.6258 268.998 50.6422 269.514 50.9857C269.988 51.3047 270.438 52 270.487 52.5154L270.528 52.9244L270.839 52.7444C271.019 52.6462 271.158 52.5317 271.158 52.4908C271.158 52.4499 271.027 52.1636 270.863 51.8528C270.111 50.4213 268.753 49.7096 267.583 50.1268Z" fill="white"/>
<path d="M304.548 53.137C304.09 53.6932 303.771 54.1268 303.837 54.1022C304.025 54.0286 304.442 54.3149 305.89 55.5092C306.92 56.3599 307.248 56.6789 307.289 56.8589C307.329 57.0797 307.37 57.047 308.156 56.09C308.606 55.5419 309.023 55.0347 309.088 54.9611C309.195 54.8384 309.178 54.773 308.957 54.4294L308.712 54.0368L308.663 54.274C308.638 54.4131 308.556 54.6421 308.491 54.7894C308.368 55.0756 307.673 55.8691 307.542 55.8691C307.501 55.8691 307.19 55.6401 306.855 55.3701C306.176 54.8057 306.176 54.7975 306.732 54.2904L307.06 53.9959L306.814 53.8159L306.561 53.636L306.364 53.8732C306.25 54.0041 306.102 54.1922 306.037 54.2904C305.963 54.3967 305.873 54.4785 305.841 54.4785C305.743 54.4785 304.859 53.7423 304.859 53.6605C304.859 53.4724 305.53 52.7607 305.775 52.6953L306.029 52.6298L305.71 52.3763L305.383 52.1227L304.548 53.137Z" fill="white"/>
<path d="M302.741 55.1248C302.405 55.4192 302.397 55.4438 302.561 55.501C302.659 55.5256 302.798 55.6728 302.872 55.8119C303.035 56.1309 303.968 58.9121 303.927 58.953C303.894 58.9939 301.162 57.3988 300.802 57.1288L300.54 56.9407L300.172 57.2352L299.796 57.5378L300.139 57.6769C300.328 57.7505 301.219 58.2413 302.119 58.773C303.657 59.681 303.788 59.7464 304.27 59.7791C304.671 59.8037 304.769 59.7955 304.745 59.7055C304.516 58.9857 303.125 54.8057 303.117 54.8057C303.109 54.8139 302.937 54.953 302.741 55.1248Z" fill="white"/>
<path d="M270.749 56.0736C271.33 56.6626 271.371 56.6871 271.739 56.6871H272.123L271.493 56.0736C270.896 55.501 270.839 55.4601 270.503 55.4601H270.144L270.749 56.0736Z" fill="white"/>
<path d="M274.021 55.9509C274.021 56.1636 273.955 56.2618 272.679 57.9141C271.722 59.1575 271.583 59.3047 271.297 59.3865C271.199 59.4192 271.477 59.6646 272.311 60.3027C273.595 61.2843 273.481 61.2516 274.111 60.7689L274.307 60.6135H273.972C273.432 60.6135 272.27 59.7301 272.434 59.4438C272.573 59.2148 273.326 58.2413 273.375 58.2413C273.399 58.2413 273.612 58.4213 273.833 58.634C274.283 59.0675 274.225 59.0675 274.528 58.6013C274.561 58.5522 274.397 58.3804 274.144 58.1923C273.898 58.0205 273.694 57.8487 273.694 57.8242C273.694 57.7178 274.454 56.8098 274.536 56.8344C274.765 56.8998 275.362 57.4152 275.477 57.6442L275.616 57.906L275.837 57.5951L276.049 57.2925L275.15 56.5972C273.996 55.7219 274.021 55.7383 274.021 55.9509Z" fill="white"/>
<path d="M277.129 58.2822C277.129 58.4458 276.884 59.0757 276.507 59.8855C275.853 61.3006 275.763 61.5705 275.853 62.045C275.992 62.7566 276.982 63.3701 277.849 63.2883C278.307 63.2393 278.315 63.2474 278.193 63.4683C278.127 63.5992 278.168 63.6401 278.503 63.771C278.716 63.8609 278.904 63.9346 278.929 63.9509C278.961 63.9591 278.978 63.8528 278.986 63.7055C278.986 63.3783 280.385 60.3436 280.687 60.0082C280.802 59.8773 280.884 59.7628 280.876 59.7546C280.81 59.6973 280.172 59.4029 280.025 59.3538C279.878 59.3129 279.861 59.3292 279.886 59.5256C279.927 59.8446 278.7 62.4703 278.405 62.6912C278.266 62.7975 278.062 62.8548 277.808 62.8548C277.039 62.8466 276.516 62.3558 276.581 61.7014C276.622 61.3251 277.718 58.8957 277.939 58.7076C278.013 58.6421 278.119 58.5767 278.176 58.5603C278.242 58.5358 278.029 58.4049 277.71 58.2658L277.129 58.0123V58.2822Z" fill="white"/>
<path d="M298.258 58.315L297.751 58.6176L297.972 58.6994C298.144 58.7649 298.414 59.1657 299.166 60.4581C299.731 61.4233 300.14 62.2168 300.148 62.3477C300.156 62.4704 300.164 62.5767 300.18 62.5767C300.189 62.5767 300.401 62.4622 300.647 62.3231C301.121 62.0532 301.26 61.9223 301.072 61.9223C300.876 61.9223 300.639 61.5869 299.706 59.9591C299.084 58.863 298.806 58.3068 298.831 58.1759C298.872 57.9469 298.863 57.9469 298.258 58.315Z" fill="white"/>
<path d="M296.344 59.3211L295.886 59.4929L296.115 59.7055C296.295 59.8691 296.467 60.2618 296.843 61.3334C297.105 62.1186 297.301 62.7403 297.26 62.724C297.203 62.7076 293.988 60.6626 293.612 60.409C293.538 60.3599 293.342 60.3845 293.023 60.4826C292.598 60.6217 292.565 60.6462 292.728 60.7199C292.974 60.8262 293.121 61.1698 293.743 63.0021C294.217 64.3681 294.258 64.5481 294.168 64.7771C294.119 64.9162 294.078 65.0307 294.086 65.0307C294.094 65.0307 294.34 64.9407 294.626 64.8344C295.109 64.6626 295.133 64.6381 294.986 64.5317C294.896 64.4663 294.782 64.3354 294.724 64.2372C294.593 63.9837 293.718 61.4233 293.751 61.3906C293.767 61.3743 294.618 61.8978 295.64 62.5522C297.146 63.5174 297.579 63.7546 297.874 63.7873L298.242 63.8282L298.152 63.591C298.103 63.4601 297.784 62.5522 297.44 61.5624C296.949 60.1391 296.835 59.7137 296.867 59.4601C296.892 59.2884 296.884 59.1411 296.859 59.1493C296.827 59.1493 296.598 59.2311 296.344 59.3211Z" fill="white"/>
<path d="M282.364 60.5399C282.438 60.6953 282.372 61.0798 282.004 62.544C281.546 64.4254 281.473 64.6462 281.252 64.7689C281.154 64.8262 281.26 64.8753 281.653 64.9816C281.955 65.0552 282.225 65.1125 282.258 65.1125C282.299 65.1125 282.315 64.9652 282.299 64.7853C282.25 64.2863 283.076 61.0389 283.305 60.8098L283.485 60.6299L283.068 60.5399C282.839 60.4908 282.569 60.4254 282.462 60.4008C282.291 60.3518 282.282 60.3599 282.364 60.5399Z" fill="white"/>
<path d="M290.34 60.998C290.503 61.407 290.536 61.6687 290.618 62.9693C290.7 64.18 290.691 64.4172 290.585 64.6135C290.413 64.9571 289.98 65.1943 289.53 65.1943C288.696 65.1943 288.434 64.818 288.327 63.4847C288.229 62.1841 288.237 61.2352 288.352 61.1207C288.467 61.0061 288.295 60.998 287.616 61.0798C287.199 61.1288 287.19 61.1288 287.33 61.2843C287.436 61.407 287.485 61.7342 287.567 62.863C287.698 64.7362 287.73 64.908 288.025 65.2434C288.589 65.8814 289.931 65.8896 290.601 65.2597L290.79 65.0879V65.3006C290.79 65.5133 290.814 65.5215 291.182 65.5215C291.632 65.5215 291.73 65.4642 291.591 65.3006C291.534 65.227 291.452 64.5971 291.395 63.8201C291.256 62.0368 291.256 61.0798 291.379 60.9571C291.452 60.8834 291.346 60.8589 290.88 60.8589C290.34 60.8589 290.291 60.8753 290.34 60.998Z" fill="white"/>
<path d="M400.565 22.863V23.8855H398.111H395.657V25.0307V26.1759H401.874H408.09V25.0307V23.8855H405.718H403.346V22.863V21.8405H401.955H400.565V22.863Z" fill="white"/>
<path d="M353.939 23.1248C352.802 23.2475 351.322 23.8282 350.446 24.4908C349.964 24.8589 349.326 25.6115 349.056 26.1268C348.581 27.0348 348.418 28.4581 348.655 29.4806C349.309 32.2618 352.336 33.9387 356.09 33.6115C358.479 33.407 360.262 32.4417 361.244 30.8221C361.71 30.0532 361.89 29.3906 361.898 28.4254C361.906 26.953 361.514 25.9796 360.483 24.9489C359.232 23.6892 357.416 23.0511 355.174 23.0839C354.651 23.0839 354.095 23.1084 353.939 23.1248ZM356.786 25.4479C357.522 25.6769 357.735 25.7996 358.217 26.2413C359.117 27.092 359.387 28.3927 358.896 29.5706C358.43 30.6749 357.178 31.3783 355.534 31.4683C352.941 31.5992 351.191 30.2086 351.338 28.1309C351.395 27.4274 351.755 26.6503 352.23 26.2168C353.244 25.3006 355.215 24.9653 356.786 25.4479Z" fill="white"/>
<path d="M411.853 29.3661V35.501H413.203H414.552V32.8426V30.1841H416.229H417.906V29.0389V27.8937H416.229H414.552V25.5624V23.2311H413.203H411.853V29.3661Z" fill="white"/>
<path d="M325.996 23.7137C325.792 23.8119 325.587 23.9837 325.465 24.18C325.268 24.499 325.268 24.5154 325.244 27.0348C325.219 29.5379 325.227 29.5788 325.407 29.9387C325.514 30.1432 325.718 30.3886 325.874 30.4867L326.152 30.6749H329.775H333.407V31.4929V32.3109L328.647 32.3272L323.878 32.3518L323.853 33.4724L323.829 34.6013H334.675H345.514V33.4561V32.3109H340.851H336.189V31.4929V30.6749H340.156H344.123V29.5297V28.3845H336.066H328.009V27.1166V25.8487H336.066H344.123V24.7035V23.5583H335.231C326.732 23.5583 326.315 23.5665 325.996 23.7137Z" fill="white"/>
<path d="M365.211 30.0368L365.187 36.5235L356.704 36.5481L348.213 36.5644V37.7096V38.8548H355.812C360.54 38.8548 363.575 38.8221 363.845 38.773C364.09 38.724 364.499 38.5849 364.761 38.4622L365.227 38.225V40.8344V43.4356H366.577H367.927V33.497V23.5583H366.577H365.227L365.211 30.0368Z" fill="white"/>
<path d="M372.753 23.7383C372.606 23.8446 372.401 24.0327 372.311 24.1554C372.139 24.3845 372.139 24.4172 372.139 31.2066C372.139 37.9959 372.139 38.0287 372.311 38.2577C372.401 38.3804 372.606 38.5685 372.753 38.6749L373.031 38.863L377.784 38.8385C382.405 38.8139 382.536 38.8058 382.937 38.6422C383.166 38.544 383.411 38.4377 383.493 38.4049C383.624 38.3477 383.632 38.5031 383.632 40.8916V43.4356H384.982H386.332V36.8098V30.1841L387.747 30.2004L389.154 30.225L389.178 36.8262L389.195 43.4356H390.544H391.894V33.497V23.5583H390.544H389.195V25.726V27.8937H387.763H386.332V25.726V23.5583H384.982H383.632L383.616 30.0368L383.591 36.5235L379.24 36.5481L374.88 36.5644V31.2066V25.8487H377.743H380.606V24.7035V23.5583H376.81H373.023L372.753 23.7383Z" fill="white"/>
<path d="M421.015 24.8671V26.0123L428.278 26.0286L435.534 26.0532L435.559 31.4683L435.575 36.8916H436.63C437.841 36.8916 437.865 36.8834 438.086 36.2127C438.209 35.8282 438.225 35.2311 438.258 30.454C438.274 26.6012 438.258 25.0307 438.193 24.7771C438.07 24.3435 437.669 23.9264 437.252 23.8118C437.023 23.7464 434.495 23.7219 428.974 23.7219H421.015V24.8671Z" fill="white"/>
<path d="M399.935 27.1084C397.497 27.5747 396.107 28.7117 395.812 30.5031C395.559 32.0491 396.287 33.5051 397.718 34.2986C398.929 34.9693 400.205 35.2066 402.283 35.1493C403.174 35.1166 403.91 35.0511 404.246 34.9693C406.561 34.4049 407.812 33.2107 407.976 31.4274C408.164 29.3988 406.847 27.8528 404.409 27.2311C403.518 27.0102 400.867 26.9366 399.935 27.1084ZM403.289 29.1779C403.919 29.3661 404.409 29.636 404.753 29.9959C405.105 30.3558 405.227 30.6421 405.227 31.0839C405.227 31.5256 405.105 31.8119 404.753 32.1718C403.722 33.2434 401.268 33.497 399.689 32.6871C397.898 31.7792 398.25 29.8814 400.319 29.2107C401.146 28.9489 402.463 28.9325 403.289 29.1779Z" fill="white"/>
<path d="M428.786 34.8466V39.182H427.027H425.268V34.8875V30.5931H423.919H422.569L422.553 34.863L422.528 39.1411L420.712 39.1657L418.888 39.182V40.3272V41.4724H429.236H439.583V40.3272V39.182H435.534H431.485V34.8466V30.5113H430.135H428.786V34.8466Z" fill="white"/>
<path d="M332.172 35.7873C329.808 36.1227 328.074 36.9571 327.15 38.2086C326.61 38.9448 326.43 39.4765 326.389 40.499C326.332 41.9059 326.659 42.7648 327.632 43.7301C328.573 44.6789 330.053 45.3088 331.943 45.5951C334.536 45.9877 337.734 45.7669 339.64 45.0716C342.004 44.2045 343.305 42.4295 343.109 40.3272C342.904 38.0614 341.17 36.5562 338.021 35.9018C336.957 35.681 333.407 35.6074 332.172 35.7873ZM337.129 38.0777C339.42 38.4376 340.45 39.3456 340.344 40.9162C340.221 42.544 338.683 43.3538 335.452 43.4847C332.074 43.6237 329.882 42.9775 329.301 41.6605C328.769 40.4581 329.26 39.2147 330.495 38.6094C331.845 37.9468 334.781 37.7178 337.129 38.0777Z" fill="white"/>
<path d="M396.638 37.7505V38.8548L404.229 38.8712L411.812 38.8957L411.837 41.2025L411.853 43.5174H413.203H414.553V40.6135C414.553 37.4315 414.544 37.3824 414.07 36.9325L413.808 36.6871L405.219 36.6626L396.638 36.6462V37.7505Z" fill="white"/>
<path d="M334.675 49.5787C333.219 49.7996 332 50.9939 331.771 52.4172C331.403 54.6994 333.44 56.6217 335.869 56.2781C338.601 55.8855 339.853 52.8916 338.176 50.7485C337.865 50.3558 337.072 49.8405 336.565 49.7014C335.984 49.5378 335.256 49.4887 334.675 49.5787ZM336.287 50.454C336.99 50.7648 337.538 51.5092 337.734 52.4172C337.865 53.0307 337.849 53.3251 337.661 53.9223C337.334 54.9939 336.524 55.5746 335.37 55.5746C334.863 55.5746 334.683 55.5419 334.34 55.362C333.424 54.8793 332.892 53.9468 332.884 52.8016C332.884 52.0818 333.08 51.501 333.522 50.9857C333.743 50.7239 334.291 50.4131 334.749 50.2986C335.141 50.2004 335.878 50.274 336.287 50.454Z" fill="white"/>
<path d="M350.054 49.726C348.966 50.045 348.156 50.6912 347.755 51.5583C347.542 52.0164 347.518 52.1473 347.518 52.9653C347.518 53.7832 347.542 53.9141 347.755 54.3804C348.164 55.2556 349.064 55.9346 350.176 56.1963C350.937 56.3763 352.459 56.319 353.596 56.0736C353.775 56.0327 353.775 56.0246 353.775 54.4376V52.8426H353.023C352.409 52.8507 352.287 52.8671 352.393 52.9489C352.663 53.1534 352.745 53.456 352.778 54.4131L352.81 55.3783L352.581 55.4683C352.45 55.5256 351.976 55.5747 351.526 55.5747C350.806 55.5828 350.651 55.5583 350.25 55.3702C349.342 54.9448 348.786 54.2086 348.63 53.2434C348.548 52.7362 348.647 52.0491 348.868 51.6156C349.497 50.3967 351.272 49.8814 352.598 50.5522L353.039 50.773V50.225V49.6769L352.663 49.6196C351.927 49.5215 350.569 49.5787 350.054 49.726Z" fill="white"/>
<path d="M420.295 49.6851C419.24 50.0286 418.741 50.9121 419.084 51.82C419.281 52.3272 419.731 52.6789 420.892 53.2433C422.135 53.8405 422.381 54.1022 422.332 54.7648C422.299 55.1656 421.522 55.6237 420.884 55.6237C420.491 55.6237 419.632 55.3374 419.191 55.0511C418.872 54.8548 418.798 54.8303 418.839 54.9448C418.855 55.0266 418.921 55.3047 418.978 55.5665L419.076 56.0327L419.526 56.1636C420.213 56.3681 421.432 56.3435 422.005 56.1227C422.921 55.7709 423.469 55.092 423.469 54.2986C423.469 53.5133 423.158 53.2024 421.612 52.4335C420.565 51.91 420.467 51.8446 420.254 51.5337C419.763 50.8303 420.663 50.0777 421.743 50.2986C421.988 50.3476 422.348 50.4785 422.544 50.593L422.896 50.8057V50.274C422.896 49.8568 422.872 49.7423 422.757 49.6932C422.471 49.5705 420.663 49.5624 420.295 49.6851Z" fill="white"/>
<path d="M361.252 49.7096L359.608 49.7342L359.763 50.0532C359.902 50.3477 359.919 50.5522 359.894 53.0716L359.869 55.771L359.673 55.9837L359.477 56.1964H361.522H363.567L363.788 55.591C363.902 55.2557 364 54.9694 364 54.9448C364 54.9203 363.788 55.0184 363.534 55.1575C363.068 55.4111 363.043 55.4193 362.045 55.4029C361.489 55.3947 361.006 55.362 360.966 55.3211C360.925 55.2802 360.9 54.7485 360.908 54.1432L360.933 53.0471L361.489 53.0225C361.857 53.0062 362.127 53.0389 362.291 53.1207L362.528 53.2352V52.7526V52.27H361.71H360.892V51.4193C360.892 50.8957 360.925 50.544 360.982 50.5113C361.031 50.4786 361.285 50.4377 361.546 50.4131C362.078 50.364 362.741 50.4949 362.961 50.6912C363.092 50.8139 363.101 50.7894 363.101 50.2413C363.101 49.816 363.076 49.6606 363.002 49.6687C362.945 49.6851 362.152 49.7015 361.252 49.7096Z" fill="white"/>
<path d="M408.475 49.7096C406.953 49.7342 406.79 49.7505 406.896 49.8651C407.158 50.1268 407.199 50.6176 407.174 53.1698C407.15 55.6483 407.15 55.6974 406.962 55.9428L406.773 56.1964L408.802 56.18L410.831 56.1555L411.052 55.5174L411.272 54.8876L410.929 55.0839C410.373 55.4111 409.955 55.4765 409.015 55.4193L408.172 55.362V54.1841V53.0062H408.745C409.105 53.0062 409.416 53.0552 409.563 53.1289L409.808 53.2597V52.7608V52.27H408.99H408.172V51.3784V50.4786L408.63 50.4213C409.211 50.3559 409.767 50.4295 410.111 50.634L410.381 50.7894V50.225C410.381 49.8078 410.356 49.6606 410.283 49.6687C410.225 49.6851 409.407 49.7015 408.475 49.7096Z" fill="white"/>
<path d="M428.499 49.7342C428.467 49.7996 428.213 50.6585 428.213 50.724C428.213 50.7485 428.369 50.6994 428.557 50.6094C428.786 50.4949 429.113 50.4295 429.579 50.4049L430.266 50.364L430.242 53.0307C430.217 55.6565 430.217 55.6974 430.029 55.9428L429.841 56.1964H430.839H431.829L431.583 55.9673C431.248 55.6565 431.232 55.4438 431.256 52.7199L431.281 50.4295H431.951C432.54 50.4295 432.638 50.454 432.827 50.6258L433.031 50.8139L433.121 50.4622C433.17 50.2659 433.244 50.0123 433.277 49.8978L433.342 49.6933H430.937C429.612 49.6933 428.516 49.7096 428.499 49.7342Z" fill="white"/>
<path d="M324.671 50.0531C324.818 50.3476 324.827 50.5439 324.802 52.9898C324.778 55.5583 324.778 55.6155 324.598 55.8609C324.491 56 324.409 56.1309 324.409 56.1554C324.409 56.229 326.88 56.1963 327.477 56.1145C328.622 55.9427 329.636 55.2556 330.094 54.3394C330.299 53.9304 330.34 53.7505 330.364 53.0061C330.389 52.2781 330.373 52.0736 330.217 51.681C329.996 51.092 329.424 50.4458 328.876 50.1677C328.148 49.7996 327.755 49.7341 326.078 49.7341H324.516L324.671 50.0531ZM327.96 50.6666C328.843 51.0675 329.268 51.8037 329.268 52.9243C329.276 53.5296 329.244 53.6851 329.047 54.0859C328.917 54.3476 328.679 54.6666 328.516 54.8057C327.96 55.2638 326.806 55.5583 326.094 55.4274L325.8 55.3701L325.816 52.9407L325.841 50.5112L326.086 50.454C326.536 50.3476 327.518 50.454 327.96 50.6666Z" fill="white"/>
<path d="M340.098 49.8977C340.188 49.9877 340.311 50.2004 340.352 50.364C340.45 50.6994 340.475 54.8793 340.385 55.4029C340.36 55.591 340.237 55.8119 340.098 55.9591L339.853 56.1963H340.769H341.685L341.44 55.9591C341.309 55.82 341.178 55.5992 341.145 55.4519C341.072 55.0511 341.088 51.1902 341.17 51.2229C341.211 51.2311 342.078 52.3108 343.109 53.6114C344.467 55.3374 345.072 56.0327 345.342 56.2045C345.546 56.3354 345.759 56.4417 345.816 56.4417C345.898 56.4417 345.923 55.8691 345.923 53.546C345.923 51.9591 345.947 50.544 345.972 50.3967C346.004 50.2577 346.111 50.0532 346.217 49.9386L346.405 49.7341H345.579H344.753L344.941 49.9386C345.047 50.0532 345.154 50.3067 345.195 50.5276C345.276 51.0511 345.285 54.5603 345.203 54.5603C345.162 54.5603 344.278 53.4724 343.223 52.1472L341.317 49.7341H340.622H339.918L340.098 49.8977Z" fill="white"/>
<path d="M365.448 49.955C365.579 50.1513 365.604 50.4622 365.636 52.5562L365.677 54.9284L365.906 55.3129C366.291 55.9755 366.929 56.2945 367.886 56.3027C368.548 56.3108 369.203 56.1227 369.563 55.8119L369.808 55.6074V55.9018V56.1963H370.561H371.305L371.109 55.9836L370.912 55.771V52.9243C370.912 50.2413 370.921 50.0695 371.068 49.9059L371.223 49.7342H370.348H369.473L369.644 49.9714C369.816 50.1922 369.824 50.2822 369.816 52.3926C369.8 54.7975 369.792 54.8712 369.293 55.2474C368.647 55.7382 367.714 55.7382 367.182 55.2311C366.7 54.773 366.618 54.3231 366.618 52.229C366.618 50.4703 366.683 49.9632 366.929 49.8241C367.027 49.7587 366.814 49.7423 366.184 49.7342H365.309L365.448 49.955Z" fill="white"/>
<path d="M373.506 50.0532C373.653 50.3477 373.661 50.544 373.636 53.0307C373.612 55.6565 373.612 55.6974 373.424 55.9428L373.236 56.1964H374.144H375.052L374.863 55.9428C374.675 55.6974 374.675 55.6565 374.651 53.0307C374.626 50.544 374.634 50.3477 374.782 50.0532L374.937 49.7342H374.144H373.35L373.506 50.0532Z" fill="white"/>
<path d="M380.573 49.9059C380.712 50.0614 380.728 50.2659 380.769 52.4663C380.81 54.6912 380.826 54.8712 380.99 55.1738C381.399 55.9346 382.094 56.3108 383.109 56.3027C383.779 56.3027 384.311 56.1309 384.843 55.7382C385.023 55.6074 385.023 55.6074 385.023 55.9018V56.1963H385.718H386.422L386.233 55.9427C386.045 55.6973 386.045 55.6564 386.021 53.0307C385.996 50.544 386.004 50.3477 386.152 50.0532L386.307 49.7342H385.44C384.826 49.7423 384.614 49.7587 384.712 49.8241C384.966 49.9632 385.023 50.4704 385.023 52.4581C385.023 53.9305 384.998 54.4622 384.908 54.6667C384.573 55.4438 383.493 55.8364 382.692 55.4683C381.906 55.1084 381.841 54.863 381.833 52.2618C381.833 50.2577 381.841 50.1513 382.004 49.9468L382.168 49.7342H381.293H380.417L380.573 49.9059Z" fill="white"/>
<path d="M388.573 49.9386C388.679 50.0532 388.786 50.2577 388.818 50.3967C388.884 50.7321 388.884 55.1166 388.818 55.4519C388.786 55.5992 388.655 55.82 388.524 55.9591L388.279 56.1963H389.203H390.119L389.906 56C389.792 55.8937 389.661 55.6646 389.612 55.4928C389.506 55.1002 389.489 51.182 389.596 51.2229C389.636 51.2311 390.324 52.0736 391.117 53.0879C393.301 55.8528 393.448 56.0245 393.816 56.2372C394.005 56.3517 394.201 56.4417 394.25 56.4417C394.324 56.4417 394.348 55.6892 394.348 53.546C394.348 51.9591 394.373 50.544 394.397 50.3967C394.43 50.2577 394.536 50.0532 394.643 49.9386L394.831 49.7341H394.005H393.178L393.358 49.9305C393.465 50.0368 393.579 50.2658 393.62 50.4458C393.718 50.8793 393.718 54.5849 393.612 54.544C393.522 54.5194 389.931 49.9959 389.874 49.8405C389.841 49.7669 389.62 49.7341 389.105 49.7341H388.385L388.573 49.9386Z" fill="white"/>
<path d="M396.851 49.906C396.998 50.0696 397.006 50.2413 397.006 52.9244V55.771L396.81 55.9837L396.614 56.1964H397.579H398.552L398.372 56.0328C398.274 55.9428 398.168 55.7628 398.135 55.6401C398.094 55.5174 398.07 54.2495 398.07 52.8262C398.07 50.2577 398.07 50.2332 398.258 49.9878L398.446 49.7342H397.571H396.696L396.851 49.906Z" fill="white"/>
<path d="M399.689 49.9959C399.804 50.1431 400.303 51.3865 400.81 52.7607C401.317 54.135 401.8 55.3947 401.89 55.5665C402.029 55.8528 402.675 56.4008 402.863 56.4008C402.929 56.4008 405.178 50.7076 405.432 49.9059C405.481 49.7423 405.465 49.7342 404.769 49.7342C404.131 49.7342 404.066 49.7505 404.213 49.8487C404.507 50.0695 404.401 50.5358 403.55 52.7853C403.109 53.9468 402.724 54.863 402.692 54.8303C402.602 54.7321 400.892 50.0041 400.892 49.8568C400.892 49.7587 400.761 49.7342 400.188 49.7342H399.493L399.689 49.9959Z" fill="white"/>
<path d="M413.056 49.955C413.187 50.1595 413.203 50.4295 413.203 52.9325C413.203 55.6728 413.203 55.6892 413.015 55.9428L412.827 56.1963H413.792C414.52 56.1882 414.716 56.1718 414.61 56.1064C414.258 55.9019 414.225 55.5992 414.225 52.9325V50.3968L414.52 50.3395C415.223 50.2086 415.788 50.4458 416.058 50.9939C416.409 51.7056 415.796 52.5317 414.773 52.7199C414.61 52.7526 414.471 52.7935 414.471 52.8098C414.471 52.8344 414.692 53.1861 414.97 53.5869C415.673 54.634 416.72 55.9019 416.99 56.0327C417.113 56.09 417.522 56.1554 417.906 56.1718L418.602 56.2045L418.315 55.9755C417.669 55.4602 417.187 54.9612 416.426 54.0205L415.624 53.0225L415.976 52.8916C417.17 52.4336 417.555 51.0021 416.712 50.2086C416.287 49.8078 415.902 49.7342 414.34 49.7342H412.917L413.056 49.955Z" fill="white"/>
<path d="M425.399 49.906C425.546 50.0696 425.555 50.2413 425.555 52.9244V55.771L425.358 55.9837L425.162 56.1964H426.127H427.101L426.921 56.0328C426.822 55.9428 426.716 55.7628 426.683 55.6401C426.642 55.5174 426.618 54.2495 426.618 52.8262C426.618 50.2577 426.618 50.2332 426.806 49.9878L426.994 49.7342H426.119H425.244L425.399 49.906Z" fill="white"/>
<path d="M434.348 50.0368C434.52 50.2086 435.092 51.043 435.616 51.8937L436.573 53.4479L436.54 54.5113C436.508 55.5829 436.434 55.8773 436.156 56.09C436.05 56.1718 436.229 56.1882 437.039 56.1964H438.054L437.89 56.0082C437.579 55.6647 437.538 55.4929 437.538 54.3968V53.3334L438.667 51.6319C439.289 50.6994 439.829 49.8896 439.861 49.8323C439.902 49.7587 439.73 49.7342 439.092 49.7342C438.34 49.7342 438.274 49.7424 438.389 49.8651C438.667 50.1432 438.593 50.364 437.833 51.5092L437.154 52.5154L436.352 51.2066C435.91 50.4786 435.485 49.8569 435.403 49.816C435.321 49.7669 434.978 49.7342 434.643 49.7342H434.029L434.348 50.0368Z" fill="white"/>
<path d="M357.146 52.4254L355.984 52.4745L355.657 52.8426C355.485 53.0471 355.338 53.2352 355.33 53.2679C355.33 53.3007 355.452 53.2843 355.591 53.2434C355.739 53.2025 356.287 53.1698 356.802 53.1698H357.751L358.152 52.7608C358.373 52.5317 358.503 52.36 358.438 52.3681C358.373 52.3763 357.792 52.4009 357.146 52.4254Z" fill="white"/>
<path d="M508.928 20.7032C507.099 21.1719 506.537 21.4219 505.021 22.4219C501.803 24.5313 498.99 28.5469 498.287 32.0313C497.943 33.75 498.053 36.8594 498.521 38.6719C499.381 42 501.943 45.4375 505.287 47.7657C506.568 48.6563 508.771 49.7344 510.537 50.3125C511.74 50.7188 512.178 50.7813 513.178 50.75C515.553 50.6563 515.084 49.8282 510.834 46.6407C509.224 45.4219 507.584 44.125 507.193 43.75C506.131 42.7188 504.99 40.875 504.553 39.5313C503.506 36.1875 504.037 33.6407 506.303 31.2344C507.693 29.75 508.959 28.875 511.412 27.6563C513.74 26.5 513.849 26.3594 514.271 24.2657C514.678 22.1875 514.115 21.0625 512.443 20.5625C511.334 20.2344 510.615 20.2657 508.928 20.7032Z" fill="white"/>
<path d="M516.35 27.7813C516.131 27.8125 515.865 27.9219 515.771 28C515.428 28.2813 515.553 29.3438 516.131 31.0625C517.85 36.2657 518.115 40.4844 516.975 45.2969C516.256 48.3907 516.35 49.3907 517.521 50.5157C518.959 51.9063 521.381 51.8438 522.787 50.3594C523.865 49.2188 524.771 45.9532 524.787 43.125C524.803 41.2188 525.303 41.3282 525.896 43.3594C526.475 45.3282 526.709 45.8438 527.287 46.4375C528.428 47.5782 529.662 47.0157 531.693 44.3907C533.412 42.1875 534.725 41.0938 535.631 41.0938C536.318 41.0938 537.584 42.4844 538.318 44.0313C539.896 47.375 540.178 47.8594 541.131 48.8907C542.553 50.4375 544.615 51.4219 544.881 50.7032C544.928 50.5782 544.693 49.6407 544.334 48.6407C543.506 46.2032 543.178 45.0782 542.443 41.9063C541.787 39.0313 541.271 37.7188 540.303 36.4375C539.146 34.9063 537.818 34.2188 536.021 34.2188C534.74 34.2188 534.053 34.4688 533.068 35.2969C531.756 36.4063 531.396 36.3282 530.318 34.6719C529.537 33.4844 528.99 33 527.912 32.5157C526.6 31.9219 525.381 32.1407 523.615 33.2813C523.053 33.6407 522.506 33.9063 522.396 33.8594C522.271 33.8125 521.85 33.1094 521.459 32.3125C519.881 29.0782 518.084 27.4688 516.35 27.7813Z" fill="white"/>
<path d="M543.381 35.6094C542.959 36.4063 543.568 39.9063 544.74 43.5C546.24 48.0938 548.1 50.6875 550.365 51.3438C552.193 51.875 554.209 51.0625 556.318 48.9531C557.037 48.2344 557.678 47.6563 557.756 47.6563C557.834 47.6563 558.225 48.0938 558.631 48.6094C560.896 51.5625 564.99 52.125 569.303 50.0781C571.35 49.0938 574.068 47.0313 575.068 45.7031C575.865 44.625 576.146 43.6406 575.85 43.0156C575.459 42.2031 575.006 42.3594 572.6 44.2188C572.037 44.6406 571.053 45.2188 570.412 45.5C569.396 45.9375 569.053 46 567.834 46.0156C566.553 46.0156 566.334 45.9688 565.396 45.5156C564.115 44.8906 563.131 43.9219 561.928 42.1094C560.725 40.3125 560.49 40.0469 559.6 39.5938C557.959 38.75 556.443 39.2188 554.24 41.25C552.475 42.875 551.568 43.2969 550.678 42.9063C550.037 42.6406 549.943 42.5313 548.209 39.9219C546.521 37.3906 544.6 35.3125 543.959 35.3125C543.709 35.3125 543.49 35.4375 543.381 35.6094Z" fill="white"/>
</svg>
